nColumns=19
nRows=87
DataType=double
version=3
OpenSimVersion=4.1
endheader
time	ground_force_calcn_l_vx	ground_force_calcn_l_vy	ground_force_calcn_l_vz	ground_force_calcn_l_px	ground_force_calcn_l_py	ground_force_calcn_l_pz	ground_force_calcn_l_mx	ground_force_calcn_l_my	ground_force_calcn_l_mz	ground_force_calcn_r_vx	ground_force_calcn_r_vy	ground_force_calcn_r_vz	ground_force_calcn_r_px	ground_force_calcn_r_py	ground_force_calcn_r_pz	ground_force_calcn_r_mx	ground_force_calcn_r_my	ground_force_calcn_r_mz
0.002	0	0	0	0	0.102085	0	0	0	0	0	0	0	0	0.292027	0	0	0	0
0.00299868	-41.7584	-35.0953	5.11638	0.247487	0	0.109915	2.88965	2.42857	-0.35405	0	0	0	0	0	0	0	0	0
0.00399737	-42.1366	-23.3229	5.63902	0.399036	0	0.091381	4.99819	2.76653	-0.668893	0	0	0	0	0	0	0	0	0
0.00499605	-42.5148	-11.5503	6.16166	0.846556	0	0.00158464	7.51462	2.04155	-1.08909	0	0	0	0	0	0	0	0	0
0.00599474	-42.893	0.222458	6.68429	-45.9568	0	7.23405	9.5668	-0.0496167	-1.49086	0	0	0	0	0	0	0	0	0
0.00699342	-43.2709	11.9956	7.2069	-0.900976	0	0.155059	10.2633	-2.8452	-1.70938	0	0	0	0	0	0	0	0	0
0.00799211	-43.6487	23.7693	7.7295	-0.486481	0	0.0336281	9.66938	-5.26556	-1.7123	0	0	0	0	0	0	0	0	0
0.00899079	-44.0261	35.5437	8.25207	-0.348857	0	-0.0246173	8.4829	-6.84852	-1.59	0	0	0	0	0	0	0	0	0
0.00998947	-44.4032	47.319	8.77462	-0.279558	0	-0.055486	7.24115	-7.71665	-1.43094	0	0	0	0	0	0	0	0	0
0.0109882	-44.7799	59.0953	9.29716	-0.237002	0	-0.0716931	6.15967	-8.12881	-1.27886	0	0	0	0	0	0	0	0	0
0.0119868	-45.156	70.8727	9.81967	-0.207664	0	-0.0799975	5.27725	-8.28269	-1.1476	0	0	0	0	0	0	0	0	0
0.0129855	-45.5316	82.6515	10.3422	-0.185882	0	-0.0840515	4.57112	-8.29775	-1.0383	0	0	0	0	0	0	0	0	0
0.0139842	-45.9064	94.4317	10.8647	-0.168859	0	-0.0858167	4.00606	-8.24066	-0.948115	0	0	0	0	0	0	0	0	0
0.0149829	-46.2806	106.213	11.3872	-0.155046	0	-0.0863536	3.5502	-8.14767	-0.873517	0	0	0	0	0	0	0	0	0
0.0159816	-46.6539	117.997	11.9098	-0.14351	0	-0.0862429	3.17823	-8.03836	-0.811337	0	0	0	0	0	0	0	0	0
0.0169803	-47.0264	129.782	12.4325	-0.13365	0	-0.0858076	2.87098	-7.92323	-0.759006	0	0	0	0	0	0	0	0	0
0.0179789	-47.398	141.569	12.9553	-0.125065	0	-0.0852286	2.61411	-7.80783	-0.714511	0	0	0	0	0	0	0	0	0
0.0189776	-47.7687	153.357	13.4782	-0.117471	0	-0.0846076	2.39688	-7.69498	-0.676295	0	0	0	0	0	0	0	0	0
0.0199763	-48.1384	165.147	14.0014	-0.110666	0	-0.0840014	2.21123	-7.58599	-0.643152	0	0	0	0	0	0	0	0	0
0.020975	-48.5072	176.938	14.5249	-0.104497	0	-0.0834402	2.05098	-7.48131	-0.614143	0	0	0	0	0	0	0	0	0
0.0219737	-48.875	188.731	15.0488	-0.098852	0	-0.0829395	1.91142	-7.38095	-0.588532	0	0	0	0	0	0	0	0	0
0.0229724	-49.2419	200.525	15.5732	-0.0936424	0	-0.0825056	1.78885	-7.28464	-0.565739	0	0	0	0	0	0	0	0	0
0.0239711	-49.6078	212.32	16.0981	-0.0887995	0	-0.0821397	1.68039	-7.19202	-0.545299	0	0	0	0	0	0	0	0	0
0.0249697	-49.9729	224.115	16.6237	-0.084269	0	-0.0818398	1.58374	-7.10263	-0.526838	0	0	0	0	0	0	0	0	0
0.0259684	-50.3372	235.911	17.1502	-0.0800071	0	-0.0816027	1.49704	-7.01603	-0.510051	0	0	0	0	0	0	0	0	0
0.0269671	-50.7007	247.707	17.6777	-0.0759783	0	-0.0814241	1.4188	-6.93177	-0.494689	0	0	0	0	0	0	0	0	0
0.0279658	-51.0634	259.502	18.2063	-0.0721536	0	-0.0812993	1.34779	-6.84941	-0.480545	0	0	0	0	0	0	0	0	0
0.0289645	-51.4255	271.296	18.7362	-0.0685089	0	-0.0812238	1.28301	-6.76855	-0.467447	0	0	0	0	0	0	0	0	0
0.0299632	-51.7871	283.089	19.2675	-0.0650242	0	-0.0811932	1.22362	-6.68879	-0.455251	0	0	0	0	0	0	0	0	0
0.0309618	-52.1481	294.879	19.8006	-0.0616829	0	-0.081203	1.16891	-6.60979	-0.443835	0	0	0	0	0	0	0	0	0
0.0319605	-52.5088	306.668	20.3355	-0.0584709	0	-0.0812493	1.1183	-6.5312	-0.433093	0	0	0	0	0	0	0	0	0
0.0329592	-52.8691	318.452	20.8726	-0.0553762	0	-0.0813284	1.07127	-6.45272	-0.422936	0	0	0	0	0	0	0	0	0
0.0339579	-53.2292	330.233	21.412	-0.0523886	0	-0.0814368	1.02741	-6.37405	-0.413288	0	0	0	0	0	0	0	0	0
0.0349566	-53.589	342.009	21.954	-0.0494994	0	-0.0815714	0.986345	-6.29492	-0.40408	0	0	0	0	0	0	0	0	0
0.0359553	-53.9488	353.779	22.4989	-0.0467011	0	-0.0817292	0.947757	-6.21509	-0.395253	0	0	0	0	0	0	0	0	0
0.0369539	-54.3085	365.543	23.0468	-0.0439874	0	-0.0819076	0.911371	-6.13432	-0.386757	0	0	0	0	0	0	0	0	0
0.0379526	-54.6681	377.3	23.5981	-0.0413525	0	-0.0821041	0.876949	-6.05238	-0.378545	0	0	0	0	0	0	0	0	0
0.0389513	-55.0278	389.048	24.1531	-0.0387918	0	-0.0823166	0.84428	-5.96909	-0.370577	0	0	0	0	0	0	0	0	0
0.03995	-55.3874	400.787	24.7121	-0.0363009	0	-0.0825429	0.813181	-5.88424	-0.362815	0	0	0	0	0	0	0	0	0
0.0409487	-55.7469	412.516	25.2752	-0.0338761	0	-0.0827812	0.783489	-5.79765	-0.355227	0	0	0	0	0	0	0	0	0
0.0419474	-56.1064	424.233	25.8429	-0.0315144	0	-0.0830298	0.755059	-5.70917	-0.347784	0	0	0	0	0	0	0	0	0
0.0429461	-56.4657	435.938	26.4153	-0.0292128	0	-0.0832871	0.727765	-5.61864	-0.340457	0	0	0	0	0	0	0	0	0
0.0439447	-56.8248	447.629	26.9929	-0.0269688	0	-0.0835518	0.701492	-5.5259	-0.333223	0	0	0	0	0	0	0	0	0
0.0449434	-57.1835	459.306	27.5759	-0.0247803	0	-0.0838225	0.676139	-5.43085	-0.326058	0	0	0	0	0	0	0	0	0
0.0459421	-57.5415	470.966	28.1645	-0.0226454	0	-0.084098	0.651614	-5.33334	-0.318942	0	0	0	0	0	0	0	0	0
0.0469408	-57.8988	482.609	28.7591	-0.0205622	0	-0.0843772	0.627837	-5.23326	-0.311855	0	0	0	0	0	0	0	0	0
0.0479395	-58.2551	494.234	29.3599	-0.0185293	0	-0.0846592	0.604733	-5.13053	-0.304778	0	0	0	0	0	0	0	0	0
0.0489382	-58.6101	505.838	29.9672	-0.0165453	0	-0.084943	0.582237	-5.02503	-0.297696	0	0	0	0	0	0	0	0	0
0.0499368	-58.9634	517.421	30.5812	-0.014609	0	-0.0852278	0.560289	-4.9167	-0.290592	0	0	0	0	0	0	0	0	0
0.0509355	-59.3148	528.982	31.2022	-0.0127192	0	-0.0855128	0.538837	-4.80546	-0.283452	0	0	0	0	0	0	0	0	0
0.0519342	-59.6637	540.518	31.8303	-0.010875	0	-0.0857973	0.517832	-4.69125	-0.276261	0	0	0	0	0	0	0	0	0
0.0529329	-60.0098	552.028	32.4659	-0.00907554	0	-0.0860807	0.497232	-4.57402	-0.269007	0	0	0	0	0	0	0	0	0
0.0539316	-60.3525	563.511	33.109	-0.00731989	0	-0.0863625	0.476998	-4.45373	-0.261678	0	0	0	0	0	0	0	0	0
0.0549303	-60.6914	574.966	33.7598	-0.00560734	0	-0.086642	0.457096	-4.33034	-0.254261	0	0	0	0	0	0	0	0	0
0.0559289	-61.0258	586.39	34.4186	-0.00393719	0	-0.0869189	0.437495	-4.20383	-0.246747	0	0	0	0	0	0	0	0	0
0.0569276	-61.3552	597.782	35.0853	-0.00230879	0	-0.0871927	0.418169	-4.07421	-0.239125	0	0	0	0	0	0	0	0	0
0.0579263	-61.6788	609.14	35.7602	-0.000721527	0	-0.0874629	0.399094	-3.94145	-0.231387	0	0	0	0	0	0	0	0	0
0.058925	-61.9961	620.464	36.4432	0.000825158	0	-0.0877293	0.380249	-3.80558	-0.223522	0	0	0	0	0	0	0	0	0
0.0599237	-62.3061	631.75	37.1344	0.00233181	0	-0.0879915	0.361618	-3.66661	-0.215524	0	0	0	0	0	0	0	0	0
0.0609224	-62.6083	642.998	37.8338	0.00379893	0	-0.0882493	0.343186	-3.52457	-0.207385	0	0	0	0	0	0	0	0	0
0.0619211	-62.9018	654.205	38.5415	0.00522702	0	-0.0885023	0.32494	-3.37951	-0.199098	0	0	0	0	0	0	0	0	0
0.0629197	-63.1858	665.37	39.2573	0.00661656	0	-0.0887503	0.30687	-3.23145	-0.190658	0	0	0	0	0	0	0	0	0
0.0639184	-63.4594	676.491	39.9812	0.007968	0	-0.0889932	0.288969	-3.08047	-0.182058	0	0	0	0	0	0	0	0	0
0.0649171	-63.7218	687.567	40.713	0.0092818	0	-0.0892307	0.271231	-2.92662	-0.173295	0	0	0	0	0	0	0	0	0
0.0659158	-63.972	698.595	41.4528	0.0105584	0	-0.0894628	0.253654	-2.76998	-0.164363	0	0	0	0	0	0	0	0	0
0.0669145	-64.2091	709.574	42.2001	0.0117982	0	-0.0896891	0.236235	-2.61063	-0.155261	0	0	0	0	0	0	0	0	0
0.0679132	-64.4323	720.501	42.955	0.0130017	0	-0.0899098	0.218975	-2.44865	-0.145984	0	0	0	0	0	0	0	0	0
0.0689118	-64.6405	731.375	43.7171	0.0141692	0	-0.0901245	0.201876	-2.28413	-0.136531	0	0	0	0	0	0	0	0	0
0.0699105	-64.8328	742.195	44.4861	0.0153013	0	-0.0903333	0.184941	-2.11717	-0.126901	0	0	0	0	0	0	0	0	0
0.0709092	-65.0082	752.957	45.2619	0.0163982	0	-0.090536	0.168175	-1.94789	-0.117092	0	0	0	0	0	0	0	0	0
0.0719079	-65.1657	763.661	46.0439	0.0174605	0	-0.0907326	0.151584	-1.77638	-0.107104	0	0	0	0	0	0	0	0	0
0.0729066	-65.3045	774.303	46.832	0.0184886	0	-0.0909231	0.135176	-1.60275	-0.096939	0	0	0	0	0	0	0	0	0
0.0739053	-65.4234	784.884	47.6257	0.0194828	0	-0.0911074	0.118958	-1.42714	-0.0865969	0	0	0	0	0	0	0	0	0
0.0749039	-65.5217	795.399	48.4245	0.0204437	0	-0.0912855	0.102941	-1.24965	-0.0760799	0	0	0	0	0	0	0	0	0
0.0759026	-65.5982	805.848	49.2281	0.0213715	0	-0.0914574	0.087135	-1.07042	-0.0653904	0	0	0	0	0	0	0	0	0
0.0769013	-65.652	816.228	50.0359	0.0222668	0	-0.091623	0.0715508	-0.889566	-0.0545316	0	0	0	0	0	0	0	0	0
0.0779	-65.6823	826.538	50.8475	0.0231299	0	-0.0917824	0.0562005	-0.70722	-0.0435073	0	0	0	0	0	0	0	0	0
0.0788987	-65.688	836.775	51.6624	0.0239614	0	-0.0919356	0.0410966	-0.523514	-0.0323217	0	0	0	0	0	0	0	0	0
0.0798974	-65.6684	846.937	52.4799	0.0247615	0	-0.0920826	0.0262523	-0.338581	-0.0209799	0	0	0	0	0	0	0	0	0
0.0808961	-65.6224	857.023	53.2996	0.0255308	0	-0.0922234	0.0116811	-0.152554	-0.00948759	0	0	0	0	0	0	0	0	0
0.0818947	-65.5493	867.03	54.1208	0.0262696	0	-0.0923581	-0.00260298	0.03443	0.00214915	0	0	0	0	0	0	0	0	0
0.0828934	-65.4483	876.956	54.9429	0.0269783	0	-0.0924866	-0.0165857	0.222236	0.0139235	0	0	0	0	0	0	0	0	0
0.0838921	-65.3184	886.8	55.7653	0.0276575	0	-0.0926091	-0.0302526	0.410726	0.025828	0	0	0	0	0	0	0	0	0
0.0848908	-65.1591	896.558	56.5874	0.0283075	0	-0.0927255	-0.0435889	0.599763	0.0378548	0	0	0	0	0	0	0	0	0
0.0858895	-64.9694	906.229	57.4084	0.0289288	0	-0.092836	-0.05658	0.789209	0.0499953	0	0	0	0	0	0	0	0	0
0.0868882	-64.7486	915.811	58.2278	0.0295217	0	-0.0929405	-0.0692109	0.978926	0.0622406	0	0	0	0	0	0	0	0	0
0.0878868	-64.4962	925.302	59.0447	0.0300868	0	-0.0930392	-0.0814669	1.16877	0.074581	0	0	0	0	0	0	0	0	0
